<svg xmlns="http://www.w3.org/2000/svg" xmlns:xlink="http://www.w3.org/1999/xlink" width="576" zoomAndPan="magnify" viewBox="0 0 432 431.999984" height="576" preserveAspectRatio="xMidYMid meet" version="1.0"><defs><clipPath id="3ad14df452"><path d="M 184 26 L 406.214844 26 L 406.214844 406 L 184 406 Z M 184 26 " clip-rule="nonzero"/></clipPath><clipPath id="c520c92035"><path d="M 25.964844 53 L 255 53 L 255 406 L 25.964844 406 Z M 25.964844 53 " clip-rule="nonzero"/></clipPath></defs><g clip-path="url(#3ad14df452)"><path fill="#ffffff" d="M 404.375 190.910156 L 380.1875 182.308594 C 375.847656 161.070312 367.480469 141.308594 355.941406 123.828125 L 366.964844 100.636719 C 356.734375 87.269531 344.765625 75.304688 331.40625 65.074219 L 308.214844 76.097656 C 290.734375 64.558594 270.96875 56.195312 249.730469 51.855469 L 241.132812 27.664062 C 232.90625 26.582031 224.519531 26.011719 215.992188 26.011719 C 207.46875 26.011719 199.085938 26.582031 190.855469 27.664062 L 186.007812 41.304688 L 184.625 45.203125 L 184.625 89.402344 C 194.671875 86.917969 205.179688 85.605469 215.992188 85.605469 C 288.035156 85.605469 346.429688 144.003906 346.429688 216.042969 C 346.429688 272.761719 310.242188 321.023438 259.6875 338.988281 C 254.46875 340.847656 249.097656 342.378906 243.59375 343.5625 L 254.808594 332.371094 L 281.339844 305.882812 L 281.339844 283.136719 C 291.726562 280.792969 299.476562 271.511719 299.476562 260.425781 C 299.476562 247.558594 289.046875 237.132812 276.1875 237.132812 C 263.320312 237.132812 252.898438 247.558594 252.898438 260.425781 C 252.898438 271.503906 260.644531 280.785156 271.019531 283.128906 L 271.019531 301.601562 L 234.957031 337.597656 L 232.613281 339.9375 L 232.613281 248.941406 L 281.339844 200.300781 L 281.339844 177.558594 C 291.726562 175.214844 299.476562 165.929688 299.476562 154.84375 C 299.476562 141.980469 289.046875 131.554688 276.1875 131.554688 C 263.320312 131.554688 252.898438 141.980469 252.898438 154.84375 C 252.898438 165.929688 260.644531 175.203125 271.019531 177.558594 L 271.019531 196.019531 L 222.292969 244.65625 L 222.292969 405.976562 C 223.144531 405.953125 223.980469 405.914062 224.820312 405.878906 C 227.433594 405.753906 230.03125 405.578125 232.613281 405.355469 C 233.457031 405.285156 234.300781 405.207031 235.136719 405.121094 C 237.148438 404.925781 239.144531 404.695312 241.132812 404.429688 L 249.730469 380.238281 C 270.96875 375.902344 290.734375 367.535156 308.214844 355.996094 L 331.40625 367.015625 C 344.765625 356.789062 356.734375 344.820312 366.964844 331.460938 L 355.941406 308.269531 C 367.480469 290.785156 375.847656 271.019531 380.1875 249.785156 L 404.375 241.179688 C 405.460938 232.957031 406.03125 224.570312 406.03125 216.042969 C 406.03125 207.523438 405.460938 199.136719 404.375 190.910156 " fill-opacity="1" fill-rule="nonzero"/></g><g clip-path="url(#c520c92035)"><path fill="#ffffff" d="M 230.714844 142.539062 C 222.484375 142.539062 215.8125 135.867188 215.8125 127.628906 C 215.8125 119.398438 222.484375 112.726562 230.714844 112.726562 C 238.953125 112.726562 245.625 119.398438 245.625 127.628906 C 245.625 135.867188 238.953125 142.539062 230.714844 142.539062 Z M 150.746094 195.265625 C 142.507812 195.265625 135.832031 188.585938 135.832031 180.351562 C 135.832031 172.121094 142.507812 165.445312 150.746094 165.445312 C 158.976562 165.445312 165.648438 172.121094 165.648438 180.351562 C 165.648438 188.585938 158.976562 195.265625 150.746094 195.265625 Z M 85.554688 216.042969 C 85.554688 162.335938 118.015625 116.214844 164.378906 96.226562 L 164.378906 125.449219 L 199.355469 160.273438 L 199.355469 295.5625 L 155.914062 252.09375 L 155.914062 203.066406 C 166.285156 200.71875 174.035156 191.441406 174.035156 180.351562 C 174.035156 167.492188 163.605469 157.0625 150.746094 157.0625 C 137.882812 157.0625 127.453125 167.492188 127.453125 180.351562 C 127.453125 191.445312 135.207031 200.722656 145.589844 203.066406 L 145.589844 256.378906 L 199.355469 310.152344 L 199.355469 345.433594 C 135.175781 337.265625 85.554688 282.449219 85.554688 216.042969 Z M 230.714844 104.339844 C 217.855469 104.339844 207.433594 114.769531 207.433594 127.628906 C 207.433594 138.71875 215.171875 147.996094 225.554688 150.34375 L 225.554688 193.109375 L 209.675781 208.953125 L 209.675781 155.992188 L 174.703125 121.167969 L 174.703125 53.589844 C 174.183594 53.722656 173.667969 53.847656 173.152344 53.988281 C 170.199219 54.769531 167.265625 55.621094 164.378906 56.558594 C 149.875 61.242188 136.25 67.863281 123.773438 76.101562 L 100.582031 65.074219 C 87.21875 75.304688 75.253906 87.273438 65.019531 100.636719 L 76.046875 123.824219 C 64.503906 141.308594 56.140625 161.070312 51.796875 182.3125 L 27.613281 190.910156 C 26.527344 199.136719 25.957031 207.519531 25.957031 216.042969 C 25.957031 224.574219 26.527344 232.957031 27.613281 241.179688 L 51.796875 249.785156 C 56.140625 271.019531 64.5 290.785156 76.046875 308.269531 L 65.019531 331.460938 C 75.253906 344.820312 87.21875 356.789062 100.582031 367.015625 L 123.773438 355.996094 C 141.253906 367.535156 161.019531 375.902344 182.257812 380.238281 L 190.855469 404.425781 C 193.675781 404.800781 196.507812 405.109375 199.355469 405.355469 C 200.199219 405.433594 201.042969 405.5 201.886719 405.5625 C 204.46875 405.753906 207.066406 405.890625 209.675781 405.976562 L 209.675781 223.535156 L 235.871094 197.386719 L 235.871094 150.351562 C 246.261719 148 254.003906 138.726562 254.003906 127.628906 C 254.003906 114.769531 243.582031 104.339844 230.714844 104.339844 " fill-opacity="1" fill-rule="nonzero"/></g></svg>