<?xml version="1.0" encoding="utf-8"?>
<!-- Generator: Adobe Illustrator 26.0.3, SVG Export Plug-In . SVG Version: 6.00 Build 0)  -->
<svg version="1.0" id="Layer_1" xmlns="http://www.w3.org/2000/svg" xmlns:xlink="http://www.w3.org/1999/xlink" x="0px" y="0px"
	 viewBox="0 0 304 238" style="enable-background:new 0 0 304 238;" xml:space="preserve">
<style type="text/css">
	.st0{fill:#07456B;}
	.st1{fill:#F47920;}
</style>
<polygon class="st0" points="33.3,145.3 33.3,105.4 46.6,105.4 46.6,110.3 39.2,110.3 39.2,122 45.1,122 45.1,127 39.2,127 
	39.2,145.3 "/>
<path class="st0" d="M54.9,105.4v30c0,0.7,0,1.5,0.2,2.2c0,0.6,0,1.1,0.2,1.7c0.1,0.3,0.3,0.5,0.6,0.7c0.4,0.3,0.8,0.4,1.3,0.4
	c1.1,0,1.7-0.4,1.8-1.3c0.3-1.2,0.4-2.5,0.4-3.7v-30h5.9v29.4c0,1.2,0,2.4-0.2,3.5c0,1.2-0.3,2.4-0.9,3.5c-0.5,1.1-1.2,2.1-2.2,2.8
	c-1.5,0.8-3.1,1.2-4.8,1.1c-1.6,0-3.2-0.3-4.6-0.9c-1-0.7-1.9-1.6-2.4-2.8c-0.4-1.1-0.7-2.3-0.9-3.5v-33.1H54.9z"/>
<polygon class="st0" points="71.6,145.3 71.6,110.3 67.2,110.3 67.2,105.4 82,105.4 82,110.3 77.5,110.3 77.5,145.3 "/>
<path class="st0" d="M89.7,105.4v30c0,0.7,0,1.5,0.2,2.2c0,0.6,0,1.1,0.2,1.7c0.1,0.3,0.3,0.5,0.6,0.7c0.4,0.3,0.8,0.4,1.3,0.4
	c1.1,0,1.7-0.4,1.8-1.3c0.3-1.2,0.4-2.5,0.4-3.7v-30h5.9v29.4c0,1.2,0,2.4-0.2,3.5c0,1.2-0.3,2.4-0.7,3.5c-0.5,1.1-1.4,2.1-2.4,2.8
	c-1.4,0.8-3,1.2-4.6,1.1c-1.6,0.1-3.2-0.2-4.6-0.9c-1.1-0.7-2-1.6-2.6-2.8c-0.4-1.1-0.7-2.3-0.9-3.5v-33.1H89.7z"/>
<path class="st0" d="M110.1,122.9h1.1c0.5,0,0.9-0.1,1.3-0.4c0.4-0.2,0.8-0.5,0.9-0.9c0.3-0.6,0.4-1.3,0.4-2c0.2-1,0.2-2.1,0.2-3.2
	c0-1.2,0-2.4-0.2-3.5c-0.1-0.7-0.4-1.3-0.7-1.8c-0.1-0.3-0.4-0.5-0.7-0.6c-0.4,0-0.7-0.2-1.1-0.2h-1.1V122.9z M115.4,145.3
	l-3.9-17.2h-1.5v17.2h-5.9v-40h7c1.2,0,2.4,0.2,3.5,0.4c1.4,0.4,2.5,1.2,3.3,2.4c0.6,1,1.1,2,1.5,3.2c0.6,1.8,0.9,3.7,0.7,5.6
	c0,1.6-0.1,3.1-0.4,4.6c-0.2,1-0.5,1.9-0.9,2.8c-0.3,0.7-0.7,1.2-1.3,1.7c-0.4,0.2-0.7,0.6-1.1,0.7l5,18.7L115.4,145.3z"/>
<polygon class="st0" points="124.2,145.3 124.2,105.4 137.7,105.4 137.7,110.3 130.1,110.3 130.1,121.8 135.6,121.8 135.6,126.8 
	130.1,126.8 130.1,140.1 137.7,140.1 137.7,145.3 "/>
<path class="st0" d="M153.6,122.9h0.9c0.5,0,0.9-0.1,1.3-0.4c0.4-0.2,0.8-0.5,0.9-0.9c0.3-0.6,0.4-1.3,0.4-2c0.2-1,0.2-2.1,0.2-3.2
	c0-1.2,0-2.4-0.2-3.5c-0.1-0.6-0.3-1.3-0.6-1.8c-0.4-0.4-0.6-0.6-0.9-0.6s-0.7-0.2-1.1-0.2h-0.9L153.6,122.9z M158.8,145.3
	l-3.9-17.2h-1.3v17.2h-6.1v-40h7c1.2,0,2.5,0.2,3.7,0.4c1.3,0.4,2.4,1.3,3.1,2.4c0.6,1,1.2,2.1,1.7,3.2c0.4,1.8,0.6,3.7,0.6,5.6
	c0,1.6-0.1,3.1-0.4,4.6c-0.2,1-0.5,1.9-0.9,2.8c-0.3,0.7-0.7,1.2-1.3,1.7c-0.4,0.2-0.7,0.6-1.1,0.7l5.2,18.7L158.8,145.3z"/>
<polygon class="st0" points="167.4,145.3 167.4,105.4 181,105.4 181,110.3 173.4,110.3 173.4,121.8 178.9,121.8 178.9,126.8 
	173.4,126.8 173.4,140.1 181.5,140.1 181.5,145.3 "/>
<polygon class="st0" points="187.2,145.3 187.2,110.3 182.8,110.3 182.8,105.4 197.6,105.4 197.6,110.3 193.2,110.3 193.2,145.3 "/>
<path class="st0" d="M206.3,129.4l-0.9-7.2c0-0.4-0.2-1.1-0.4-2.2c0-1.2-0.2-2.4-0.4-3.5c0-1.1-0.2-2.2-0.2-3.2
	c0-0.6-0.2-1.3-0.4-1.8v1.7c0,0.6-0.2,1.3-0.2,2.2c-0.1,0.8-0.2,1.6-0.2,2.4c-0.1,0.5-0.2,1-0.2,1.5c0,0.6-0.2,0.9-0.2,1.5
	c0,0.6,0,1.1-0.2,1.7l-0.8,7L206.3,129.4z M208.2,145.3l-1.3-11.1h-4.8l-1.3,11.1h-5.4l6.3-40h5.7l6.5,40H208.2z"/>
<rect x="216.1" y="105.4" class="st0" width="5.9" height="40"/>
<rect x="238.1" y="105.4" class="st0" width="1.5" height="30"/>
<polygon class="st0" points="226.1,145.3 226.1,105.4 232.2,105.4 232.2,140.1 239.6,140.1 239.6,145.3 "/>
<rect x="242.6" y="105.4" class="st0" width="2.8" height="40"/>
<rect x="256.3" y="105.4" class="st0" width="0.7" height="40"/>
<rect x="249.1" y="105.4" class="st0" width="1.5" height="40"/>
<rect x="252" y="105.4" class="st0" width="1.7" height="40"/>
<path class="st1" d="M270.7,95.6c-1,0.1-1.8,0.6-2.2,1.5c-0.6,1.1-2.6,4.6-8.7,5.2c0.4-0.7,4.1-1.5,2-4.4c-0.9-1.1-0.7-1.5-0.7-1.7
	c-0.6-0.3-0.8-1.1-0.5-1.7c-0.6-0.2-0.6-1.1-0.6-1.3c-0.3-0.1-0.6-0.4-0.7-0.7c1.2-0.3,2.5,0.1,3.3,0.9c1.9,1.7,2.2,2.6,3.5,2.6
	c1.3,0,2-1.5,3.3-1.5C270,94.5,270.6,94.9,270.7,95.6z"/>
</svg>
