<?xml version="1.0" encoding="iso-8859-1"?>
<!-- Generator: Adobe Illustrator 26.0.1, SVG Export Plug-In . SVG Version: 6.00 Build 0)  -->
<svg version="1.1" id="Layer_1" xmlns="http://www.w3.org/2000/svg" xmlns:xlink="http://www.w3.org/1999/xlink" x="0px" y="0px"
	 viewBox="0 0 500 500" style="enable-background:new 0 0 500 500;" xml:space="preserve">
<g id="watermark_1_">
	<g>
		<g id="watermark" style="opacity:0.61;">
			<g>
				<g>
					<g>
						<g>
							<polygon style="fill:#FFFFFF;" points="213.765,461.172 208.204,474.017 205.268,474.017 199.726,461.172 202.938,461.172 
								206.846,470.347 210.81,461.172 							"/>
						</g>
						<g>
							<path style="fill:#FFFFFF;" d="M223.507,469.741h-7.469c0.275,1.23,1.321,1.982,2.826,1.982c1.046,0,1.798-0.312,2.477-0.954
								l1.523,1.651c-0.917,1.046-2.294,1.597-4.074,1.597c-3.413,0-5.634-2.147-5.634-5.083c0-2.954,2.257-5.083,5.267-5.083
								c2.899,0,5.138,1.945,5.138,5.12C223.562,469.191,223.526,469.503,223.507,469.741 M216.002,468.071h4.863
								c-0.202-1.248-1.138-2.055-2.422-2.055C217.139,466.016,216.204,466.805,216.002,468.071"/>
						</g>
						<g>
							<path style="fill:#FFFFFF;" d="M224.735,468.934c0-2.973,2.294-5.083,5.505-5.083c2.074,0,3.707,0.899,4.423,2.514
								l-2.22,1.193c-0.532-0.936-1.321-1.358-2.221-1.358c-1.45,0-2.587,1.009-2.587,2.734c0,1.725,1.138,2.734,2.587,2.734
								c0.899,0,1.688-0.404,2.221-1.358l2.22,1.211c-0.716,1.578-2.349,2.495-4.423,2.495
								C227.029,474.017,224.735,471.907,224.735,468.934"/>
						</g>
						<g>
							<path style="fill:#FFFFFF;" d="M242.828,473.393c-0.587,0.422-1.45,0.624-2.331,0.624c-2.33,0-3.688-1.193-3.688-3.542
								v-4.055h-1.523v-2.202h1.523v-2.404h2.863v2.404h2.459v2.202h-2.459v4.019c0,0.844,0.458,1.303,1.229,1.303
								c0.422,0,0.844-0.128,1.156-0.367L242.828,473.393z"/>
						</g>
					</g>
					<g>
						<path style="fill:#FFFFFF;" d="M262.474,463.997v2.643c-0.238-0.018-0.422-0.037-0.642-0.037
							c-1.578,0-2.624,0.862-2.624,2.753v4.661h-2.863v-9.873h2.734v1.303C259.776,464.493,260.951,463.997,262.474,463.997"/>
					</g>
					<g>
						<path style="fill:#FFFFFF;" d="M263.299,472.53l1.009-2.239c1.083,0.789,2.697,1.339,4.239,1.339
							c1.762,0,2.477-0.587,2.477-1.376c0-2.404-7.469-0.752-7.469-5.524c0-2.184,1.762-4,5.413-4c1.615,0,3.267,0.385,4.459,1.138
							l-0.918,2.257c-1.193-0.679-2.422-1.009-3.56-1.009c-1.761,0-2.44,0.66-2.44,1.468c0,2.367,7.468,0.734,7.468,5.45
							c0,2.147-1.78,3.982-5.45,3.982C266.492,474.017,264.437,473.411,263.299,472.53"/>
					</g>
					<g>
						<path style="fill:#FFFFFF;" d="M285.428,469.741h-7.469c0.275,1.23,1.321,1.982,2.826,1.982c1.046,0,1.798-0.312,2.477-0.954
							l1.523,1.651c-0.918,1.046-2.294,1.597-4.074,1.597c-3.413,0-5.634-2.147-5.634-5.083c0-2.954,2.257-5.083,5.267-5.083
							c2.9,0,5.138,1.945,5.138,5.12C285.484,469.191,285.447,469.503,285.428,469.741 M277.923,468.071h4.863
							c-0.202-1.248-1.138-2.055-2.422-2.055C279.061,466.016,278.125,466.805,277.923,468.071"/>
					</g>
					<g>
						<path style="fill:#FFFFFF;" d="M297.007,469.741h-7.469c0.275,1.23,1.321,1.982,2.826,1.982c1.046,0,1.798-0.312,2.477-0.954
							l1.523,1.651c-0.918,1.046-2.294,1.597-4.074,1.597c-3.413,0-5.634-2.147-5.634-5.083c0-2.954,2.257-5.083,5.267-5.083
							c2.899,0,5.138,1.945,5.138,5.12C297.062,469.191,297.025,469.503,297.007,469.741 M289.501,468.071h4.863
							c-0.202-1.248-1.138-2.055-2.422-2.055C290.639,466.016,289.703,466.805,289.501,468.071"/>
					</g>
					<g>
						<polygon style="fill:#FFFFFF;" points="303.208,470.145 301.831,471.503 301.831,474.017 298.969,474.017 298.969,460.401 
							301.831,460.401 301.831,468.108 306.016,464.144 309.429,464.144 305.318,468.328 309.796,474.017 306.327,474.017 						"/>
					</g>
					<g>
						<path style="fill:#FFFFFF;" d="M256.601,475.359L256.601,475.359l-2.86-2.86c-0.435,0.508-0.953,0.943-1.534,1.284
							c-0.092,0.069-0.186,0.136-0.283,0.199l3.027,3.027c0.456,0.456,1.195,0.456,1.65,0
							C257.057,476.554,257.057,475.815,256.601,475.359"/>
					</g>
					<g>
						<path style="fill:#FFFFFF;" d="M249.984,463.244c0.221-0.173,0.495-0.281,0.797-0.281c0.042,0,0.083,0.002,0.124,0.006
							c-0.214-0.156-0.478-0.249-0.764-0.249c-0.395,0-0.744,0.18-0.981,0.458c-0.051,0-0.1,0.006-0.151,0.008
							c0.039-0.077,0.064-0.162,0.064-0.255c0-0.234-0.143-0.434-0.346-0.519c0.087,0.126,0.138,0.279,0.138,0.445
							c0,0.122-0.031,0.237-0.081,0.341c-2.811,0.201-5.03,2.539-5.03,5.4c0,2.993,2.426,5.42,5.42,5.42
							c2.993,0,5.42-2.426,5.42-5.42C254.595,465.879,252.593,463.635,249.984,463.244 M247.983,464.656
							c0.435,0,0.844,0.112,1.199,0.309c0.374-0.245,0.82-0.387,1.299-0.387c0.711,0,1.348,0.312,1.784,0.806
							c-0.435-0.379-1.004-0.61-1.627-0.61c-0.449,0-0.87,0.12-1.234,0.329c-0.079,0.046-0.156,0.096-0.229,0.15
							c-0.065-0.048-0.133-0.093-0.204-0.134c-0.369-0.219-0.8-0.344-1.26-0.344c-0.3,0-0.588,0.054-0.854,0.152
							C247.196,464.754,247.578,464.656,247.983,464.656 M251.772,469.098c0.115,0.305,0.181,0.634,0.181,0.979
							c0,1.534-1.244,2.777-2.778,2.777c-1.534,0-2.777-1.243-2.777-2.777c0-0.345,0.066-0.674,0.181-0.979
							c-0.62-0.382-1.035-1.064-1.035-1.846c0-1.197,0.971-2.168,2.168-2.168c0.565,0,1.078,0.218,1.463,0.572
							c0.386-0.354,0.899-0.572,1.464-0.572c1.197,0,2.168,0.971,2.168,2.168C252.807,468.034,252.392,468.716,251.772,469.098"/>
					</g>
					<g>
						<path style="fill:#FFFFFF;" d="M251.666,467.061c0,0.497-0.404,0.901-0.901,0.901c-0.497,0-0.901-0.404-0.901-0.901
							s0.404-0.901,0.901-0.901c0.101,0,0.197,0.017,0.287,0.047c-0.03,0.062-0.045,0.132-0.045,0.204
							c0,0.273,0.221,0.494,0.494,0.494c0.05,0,0.099-0.008,0.146-0.022C251.66,466.941,251.666,467,251.666,467.061"/>
					</g>
					<g>
						<path style="fill:#FFFFFF;" d="M248.255,467.061c0,0.376-0.305,0.681-0.681,0.681c-0.376,0-0.681-0.305-0.681-0.681
							s0.305-0.681,0.681-0.681c0.076,0,0.149,0.013,0.217,0.035c-0.023,0.047-0.034,0.1-0.034,0.155
							c0,0.206,0.167,0.374,0.374,0.374c0.038,0,0.075-0.006,0.11-0.017C248.25,466.97,248.255,467.015,248.255,467.061"/>
					</g>
					<g>
						<g>
							<g>
								<rect x="242.908" y="467.83" style="fill:#FFFFFF;" width="0.616" height="0.616"/>
							</g>
							<g>
								<rect x="254.827" y="467.83" style="fill:#FFFFFF;" width="0.616" height="0.616"/>
							</g>
							<g>
								<path style="fill:#FFFFFF;" d="M255.205,468.082h-0.14c0-3.248-2.642-5.89-5.89-5.89c-3.248,0-5.89,2.642-5.89,5.89h-0.14
									c0-1.611,0.627-3.125,1.766-4.264c1.139-1.139,2.653-1.766,4.264-1.766c1.611,0,3.125,0.627,4.264,1.766
									C254.578,464.957,255.205,466.471,255.205,468.082"/>
							</g>
						</g>
						<g>
							<rect x="248.868" y="461.814" style="fill:#FFFFFF;" width="0.616" height="0.616"/>
						</g>
						<g>
							<rect x="244.95" y="462.052" style="fill:#FFFFFF;" width="8.45" height="0.14"/>
						</g>
						<g>
							<path style="fill:#FFFFFF;" d="M245.174,462.15c0,0.108-0.088,0.196-0.196,0.196c-0.108,0-0.196-0.088-0.196-0.196
								c0-0.108,0.088-0.196,0.196-0.196C245.086,461.954,245.174,462.042,245.174,462.15"/>
						</g>
						<g>
							<path style="fill:#FFFFFF;" d="M253.596,462.15c0,0.108-0.088,0.196-0.196,0.196c-0.108,0-0.196-0.088-0.196-0.196
								c0-0.108,0.088-0.196,0.196-0.196C253.509,461.954,253.596,462.042,253.596,462.15"/>
						</g>
					</g>
				</g>
				<g>
					<path style="fill:#FFFFFF;" d="M314.356,473.409c0,1.559-2.364,1.559-2.364,0C311.993,471.851,314.356,471.851,314.356,473.409
						z"/>
				</g>
				<g>
					<g>
						<g>
							<path style="fill:#FFFFFF;" d="M161.739,466.549l1.772,6.088l1.855-6.088h2.215l-2.823,8.14h-2.33l-0.837-2.396l-0.722-2.708
								l-0.722,2.708l-0.837,2.396h-2.33l-2.839-8.14h2.231l1.855,6.088l1.756-6.088H161.739z"/>
						</g>
						<g>
							<path style="fill:#FFFFFF;" d="M176.713,466.549l1.772,6.088l1.855-6.088h2.215l-2.823,8.14h-2.33l-0.837-2.396l-0.722-2.708
								l-0.722,2.708l-0.837,2.396h-2.33l-2.839-8.14h2.231l1.855,6.088l1.756-6.088H176.713z"/>
						</g>
						<g>
							<path style="fill:#FFFFFF;" d="M191.687,466.549l1.772,6.088l1.855-6.088h2.215l-2.823,8.14h-2.33l-0.837-2.396l-0.722-2.708
								l-0.722,2.708l-0.837,2.396h-2.33l-2.839-8.14h2.231l1.855,6.088l1.756-6.088H191.687z"/>
						</g>
					</g>
					<g>
						<path style="fill:#FFFFFF;" d="M200.908,473.52c0,1.559-2.364,1.559-2.364,0C198.545,471.962,200.908,471.962,200.908,473.52z
							"/>
					</g>
					<g>
						<path style="fill:#FFFFFF;" d="M322.71,473.409c-0.935,0.919-1.919,1.28-3.117,1.28c-2.346,0-4.3-1.411-4.3-4.282
							s1.953-4.284,4.3-4.284c1.149,0,2.035,0.329,2.921,1.199l-1.264,1.329c-0.476-0.428-1.066-0.64-1.623-0.64
							c-1.346,0-2.33,0.985-2.33,2.396c0,1.542,1.05,2.362,2.297,2.362c0.64,0,1.28-0.18,1.772-0.672L322.71,473.409z"/>
					</g>
					<g>
						<path style="fill:#FFFFFF;" d="M331.805,470.472c0,2.33-1.591,4.217-4.217,4.217c-2.626,0-4.201-1.887-4.201-4.217
							c0-2.314,1.609-4.217,4.185-4.217C330.149,466.255,331.805,468.158,331.805,470.472z M325.389,470.472
							c0,1.231,0.739,2.38,2.199,2.38c1.46,0,2.199-1.149,2.199-2.38c0-1.215-0.854-2.396-2.199-2.396
							C326.144,468.077,325.389,469.258,325.389,470.472z"/>
					</g>
					<g>
						<path style="fill:#FFFFFF;" d="M338.572,474.689v-4.332c0-1.068-0.559-2.035-1.658-2.035c-1.082,0-1.722,0.967-1.722,2.035
							v4.332h-2.003v-8.107h1.855l0.148,0.985c0.426-0.82,1.362-1.116,2.133-1.116c0.969,0,1.937,0.394,2.396,1.51
							c0.723-1.149,1.658-1.478,2.708-1.478c2.297,0,3.43,1.412,3.43,3.84v4.365h-2.003v-4.365c0-1.066-0.442-1.97-1.526-1.97
							c-1.082,0-1.756,0.935-1.756,2.003v4.332H338.572z"/>
					</g>
				</g>
			</g>
		</g>
		<g style="opacity:0.61;">
			<g>
				<g>
					<path style="fill:#FFFFFF;" d="M345.988,431.299c-0.006-1.224-0.959-2.121-2.189-2.14c-0.924-0.014-0.832,0.12-0.834-0.867
						c-0.003-1.097-0.007-2.194,0.003-3.292c0.003-0.379-0.112-0.691-0.362-0.976c-2.342-2.668-4.678-5.342-7.019-8.011
						c-0.12-0.137-0.275-0.244-0.414-0.366c-6.214,0-12.427,0-18.641,0c-0.794,0.293-1.14,0.868-1.138,1.709
						c0.01,3.748,0.004,7.496,0.004,11.243c0,0.556-0.003,0.589-0.55,0.551c-1.497-0.102-2.516,0.986-2.497,2.492
						c0.044,3.476,0.013,6.953,0.014,10.429c0.001,1.58,0.867,2.443,2.45,2.449c0.582,0.002,0.582,0.002,0.582,0.6
						c0,2.219-0.001,4.438,0.001,6.657c0.001,1.192,0.58,1.771,1.768,1.771c8.013,0.001,16.027,0.001,24.04,0
						c1.168,0,1.755-0.583,1.757-1.745c0.002-2.256,0-4.512,0.001-6.768c0-0.512,0.002-0.511,0.52-0.515
						c0.271-0.002,0.541,0.008,0.809-0.058c0.996-0.246,1.69-1.044,1.694-2.069C346.003,438.696,346.005,434.997,345.988,431.299z
						 M317.537,417.162c5.337,0,10.674,0,16.01,0c0.548,0,0.554,0.007,0.554,0.561c0.001,2.243-0.001,4.486,0.001,6.73
						c0.001,0.811,0.249,1.059,1.06,1.059c1.91,0.001,3.821,0,5.731,0.001c0.458,0,0.479,0.021,0.481,0.483
						c0.003,0.887,0.002,1.775,0,2.662c-0.001,0.477-0.024,0.498-0.504,0.499c-3.895,0.001-7.79,0-11.684,0
						c-3.882,0-7.765,0-11.647,0c-0.55,0-0.552-0.001-0.552-0.561c-0.001-3.624-0.001-7.247,0-10.871
						C316.987,417.166,316.991,417.162,317.537,417.162z M340.822,451.579c-3.883,0.001-7.766,0-11.65,0c-3.871,0-7.742,0-11.613,0
						c-0.572,0-0.574-0.002-0.574-0.579c-0.001-1.997-0.001-3.994,0.001-5.991c0-0.464,0.023-0.486,0.478-0.487
						c7.803-0.001,15.607-0.001,23.41,0c0.478,0,0.499,0.02,0.499,0.503c0.002,1.997,0.001,3.994,0,5.991
						C341.375,451.574,341.37,451.579,340.822,451.579z"/>
				</g>
				<g>
					<g>
						<rect x="327.418" y="417.053" style="fill:#FFFFFF;" width="1.757" height="1.054"/>
					</g>
					<g>
						<rect x="325.662" y="418.107" style="fill:#FFFFFF;" width="1.757" height="1.054"/>
					</g>
					<g>
						<rect x="327.418" y="419.161" style="fill:#FFFFFF;" width="1.757" height="1.054"/>
					</g>
					<g>
						<rect x="325.662" y="420.215" style="fill:#FFFFFF;" width="1.757" height="1.054"/>
					</g>
					<g>
						<rect x="327.418" y="421.269" style="fill:#FFFFFF;" width="1.757" height="1.054"/>
					</g>
					<g>
						<rect x="325.662" y="422.323" style="fill:#FFFFFF;" width="1.757" height="1.054"/>
					</g>
					<g>
						<rect x="327.418" y="423.378" style="fill:#FFFFFF;" width="1.757" height="1.054"/>
					</g>
					<g>
						<rect x="325.662" y="424.432" style="fill:#FFFFFF;" width="1.757" height="1.054"/>
					</g>
					<g>
						<rect x="327.418" y="425.486" style="fill:#FFFFFF;" width="1.757" height="1.054"/>
					</g>
					<g>
						<rect x="325.662" y="426.54" style="fill:#FFFFFF;" width="1.757" height="1.054"/>
					</g>
					<g>
						<rect x="327.418" y="427.594" style="fill:#FFFFFF;" width="1.757" height="1.054"/>
					</g>
					<g>
						<rect x="325.662" y="428.648" style="fill:#FFFFFF;" width="1.757" height="1.054"/>
					</g>
				</g>
			</g>
			<g>
				<path style="fill:#FFFFFF;" d="M187.637,431.299c-0.006-1.224-0.959-2.121-2.189-2.14c-0.924-0.014-0.832,0.12-0.834-0.867
					c-0.003-1.097-0.007-2.194,0.003-3.292c0.003-0.379-0.112-0.691-0.362-0.976c-2.342-2.668-4.678-5.342-7.019-8.011
					c-0.12-0.137-0.275-0.244-0.414-0.366c-6.214,0-12.427,0-18.641,0c-0.794,0.293-1.14,0.868-1.138,1.709
					c0.01,3.748,0.004,7.496,0.004,11.243c0,0.556-0.003,0.589-0.55,0.551c-1.497-0.102-2.516,0.986-2.497,2.492
					c0.044,3.476,0.013,6.953,0.014,10.429c0.001,1.58,0.867,2.443,2.45,2.449c0.582,0.002,0.582,0.002,0.582,0.6
					c0,2.219-0.001,4.438,0.001,6.657c0.001,1.192,0.58,1.771,1.768,1.771c8.013,0.001,16.027,0.001,24.04,0
					c1.168,0,1.755-0.583,1.757-1.745c0.002-2.256,0-4.512,0.001-6.768c0-0.512,0.002-0.511,0.52-0.515
					c0.271-0.002,0.541,0.008,0.809-0.058c0.996-0.246,1.69-1.044,1.694-2.069C187.652,438.696,187.655,434.997,187.637,431.299z
					 M159.187,417.162c5.337,0,10.674,0,16.01,0c0.548,0,0.554,0.007,0.554,0.561c0.001,2.243-0.001,4.486,0.001,6.73
					c0.001,0.811,0.249,1.059,1.06,1.059c1.91,0.001,3.821,0,5.731,0.001c0.458,0,0.479,0.021,0.481,0.483
					c0.003,0.887,0.002,1.775,0,2.662c-0.001,0.477-0.024,0.498-0.504,0.499c-3.895,0.001-7.79,0-11.684,0
					c-3.882,0-7.765,0-11.647,0c-0.55,0-0.552-0.001-0.552-0.561c-0.001-3.624-0.001-7.247,0-10.871
					C158.636,417.166,158.64,417.162,159.187,417.162z M182.472,451.579c-3.883,0.001-7.766,0-11.65,0c-3.871,0-7.742,0-11.613,0
					c-0.572,0-0.574-0.002-0.574-0.579c-0.001-1.997-0.001-3.994,0.001-5.991c0-0.464,0.023-0.486,0.478-0.487
					c7.803-0.001,15.607-0.001,23.41,0c0.478,0,0.499,0.02,0.499,0.503c0.002,1.997,0.001,3.994,0,5.991
					C183.024,451.574,183.019,451.579,182.472,451.579z"/>
			</g>
			<g>
				<path style="fill:#FFFFFF;" d="M159.779,440.669v-7.897h2.779c0.375,0,0.726,0.061,1.053,0.182
					c0.327,0.121,0.612,0.292,0.855,0.513c0.242,0.221,0.434,0.483,0.573,0.789c0.14,0.305,0.21,0.642,0.21,1.009
					c0,0.375-0.07,0.715-0.21,1.02c-0.14,0.305-0.331,0.568-0.573,0.789c-0.243,0.221-0.528,0.392-0.855,0.513
					c-0.327,0.121-0.678,0.182-1.053,0.182h-1.29v2.901H159.779z M162.58,436.356c0.39,0,0.684-0.111,0.882-0.331
					c0.199-0.22,0.298-0.474,0.298-0.761c0-0.14-0.024-0.276-0.072-0.408c-0.048-0.132-0.121-0.248-0.221-0.347
					c-0.099-0.099-0.223-0.178-0.37-0.237c-0.147-0.059-0.32-0.089-0.518-0.089h-1.312v2.173H162.58z"/>
				<path style="fill:#FFFFFF;" d="M166.308,432.771h1.731l3.177,5.294h0.088l-0.088-1.522v-3.772h1.478v7.897h-1.566l-3.353-5.592
					h-0.088l0.088,1.522v4.07h-1.467V432.771z"/>
				<path style="fill:#FFFFFF;" d="M177.922,436.334h3.872c0.022,0.089,0.04,0.195,0.055,0.32c0.014,0.125,0.022,0.25,0.022,0.375
					c0,0.507-0.077,0.985-0.231,1.434c-0.154,0.449-0.397,0.849-0.728,1.202c-0.353,0.375-0.776,0.666-1.268,0.871
					c-0.493,0.206-1.055,0.309-1.688,0.309c-0.574,0-1.114-0.103-1.622-0.309c-0.507-0.206-0.948-0.492-1.323-0.86
					c-0.375-0.367-0.673-0.803-0.894-1.307c-0.221-0.504-0.331-1.053-0.331-1.649c0-0.595,0.11-1.145,0.331-1.649
					c0.221-0.504,0.518-0.939,0.894-1.307c0.375-0.367,0.816-0.654,1.323-0.86c0.507-0.206,1.048-0.309,1.622-0.309
					c0.64,0,1.211,0.11,1.715,0.331c0.504,0.221,0.935,0.526,1.296,0.915l-1.025,1.004c-0.258-0.272-0.544-0.48-0.861-0.623
					c-0.316-0.143-0.695-0.215-1.136-0.215c-0.361,0-0.703,0.065-1.026,0.193c-0.324,0.129-0.607,0.311-0.85,0.546
					c-0.242,0.235-0.436,0.52-0.579,0.855c-0.143,0.335-0.215,0.708-0.215,1.119c0,0.412,0.072,0.785,0.215,1.12
					c0.143,0.335,0.338,0.62,0.584,0.855c0.246,0.235,0.531,0.418,0.855,0.546c0.323,0.129,0.669,0.193,1.037,0.193
					c0.419,0,0.773-0.061,1.064-0.182c0.29-0.121,0.538-0.278,0.744-0.469c0.148-0.132,0.275-0.3,0.381-0.502
					c0.106-0.202,0.189-0.428,0.248-0.678h-2.482V436.334z"/>
			</g>
			<g>
				<path style="fill:#FFFFFF;" d="M224.019,431.299c-0.006-1.224-0.959-2.121-2.189-2.14c-0.924-0.014-0.832,0.12-0.834-0.867
					c-0.003-1.097-0.007-2.194,0.003-3.292c0.003-0.379-0.112-0.691-0.362-0.976c-2.342-2.668-4.678-5.342-7.019-8.011
					c-0.12-0.137-0.275-0.244-0.414-0.366c-6.214,0-12.427,0-18.641,0c-0.794,0.293-1.14,0.868-1.138,1.709
					c0.01,3.748,0.004,7.496,0.004,11.243c0,0.556-0.003,0.589-0.55,0.551c-1.497-0.102-2.516,0.986-2.497,2.492
					c0.044,3.476,0.013,6.953,0.014,10.429c0.001,1.58,0.867,2.443,2.45,2.449c0.582,0.002,0.582,0.002,0.582,0.6
					c0,2.219-0.001,4.438,0.001,6.657c0.001,1.192,0.58,1.771,1.768,1.771c8.013,0.001,16.027,0.001,24.04,0
					c1.168,0,1.755-0.583,1.757-1.745c0.002-2.256,0-4.512,0.001-6.768c0-0.512,0.002-0.511,0.52-0.515
					c0.271-0.002,0.541,0.008,0.809-0.058c0.997-0.246,1.69-1.044,1.694-2.069C224.034,438.696,224.036,434.997,224.019,431.299z
					 M195.568,417.162c5.337,0,10.674,0,16.01,0c0.548,0,0.554,0.007,0.554,0.561c0.001,2.243-0.001,4.486,0.001,6.73
					c0.001,0.811,0.249,1.059,1.06,1.059c1.91,0.001,3.821,0,5.731,0.001c0.458,0,0.479,0.021,0.481,0.483
					c0.003,0.887,0.002,1.775,0,2.662c-0.001,0.477-0.024,0.498-0.504,0.499c-3.895,0.001-7.79,0-11.684,0
					c-3.882,0-7.765,0-11.647,0c-0.55,0-0.552-0.001-0.552-0.561c-0.001-3.624-0.001-7.247,0-10.871
					C195.018,417.166,195.022,417.162,195.568,417.162z M218.854,451.579c-3.883,0.001-7.766,0-11.65,0c-3.871,0-7.742,0-11.613,0
					c-0.572,0-0.574-0.002-0.574-0.579c-0.001-1.997-0.001-3.994,0.001-5.991c0-0.464,0.023-0.486,0.478-0.487
					c7.803-0.001,15.607-0.001,23.41,0c0.478,0,0.499,0.02,0.499,0.503c0.002,1.997,0.001,3.994,0,5.991
					C219.406,451.574,219.401,451.579,218.854,451.579z"/>
			</g>
			<g>
				<path style="fill:#FFFFFF;" d="M205.111,432.771h1.699l2.967,7.897h-1.644l-0.651-1.886h-3.044l-0.651,1.886h-1.643
					L205.111,432.771z M206.997,437.415l-0.706-1.974l-0.287-0.96h-0.088l-0.287,0.96l-0.706,1.974H206.997z"/>
				<path style="fill:#FFFFFF;" d="M211.331,434.536c-0.125,0-0.245-0.024-0.359-0.072c-0.114-0.048-0.213-0.114-0.298-0.199
					c-0.084-0.084-0.151-0.182-0.198-0.292c-0.048-0.11-0.072-0.232-0.072-0.364s0.024-0.254,0.072-0.364
					c0.048-0.11,0.114-0.208,0.198-0.292c0.084-0.084,0.184-0.151,0.298-0.198c0.114-0.048,0.233-0.072,0.359-0.072
					c0.257,0,0.478,0.09,0.662,0.27c0.184,0.181,0.276,0.399,0.276,0.656s-0.092,0.476-0.276,0.656
					C211.809,434.446,211.589,434.536,211.331,434.536z M210.615,440.669v-5.404h1.445v5.404H210.615z"/>
			</g>
			<g>
				<path style="fill:#FFFFFF;" d="M261.044,431.299c-0.006-1.224-0.959-2.121-2.189-2.14c-0.924-0.014-0.832,0.12-0.834-0.867
					c-0.003-1.097-0.007-2.194,0.003-3.292c0.003-0.379-0.112-0.691-0.362-0.976c-2.342-2.668-4.678-5.342-7.019-8.011
					c-0.12-0.137-0.275-0.244-0.414-0.366c-6.214,0-12.427,0-18.641,0c-0.794,0.293-1.14,0.868-1.138,1.709
					c0.01,3.748,0.004,7.496,0.004,11.243c0,0.556-0.003,0.589-0.55,0.551c-1.497-0.102-2.516,0.986-2.497,2.492
					c0.044,3.476,0.013,6.953,0.014,10.429c0.001,1.58,0.867,2.443,2.45,2.449c0.582,0.002,0.582,0.002,0.582,0.6
					c0,2.219-0.001,4.438,0.001,6.657c0.001,1.192,0.58,1.771,1.768,1.771c8.013,0.001,16.027,0.001,24.04,0
					c1.168,0,1.755-0.583,1.757-1.745c0.002-2.256,0-4.512,0.001-6.768c0-0.512,0.002-0.511,0.52-0.515
					c0.271-0.002,0.541,0.008,0.809-0.058c0.996-0.246,1.69-1.044,1.694-2.069C261.059,438.696,261.061,434.997,261.044,431.299z
					 M232.593,417.162c5.337,0,10.674,0,16.01,0c0.548,0,0.554,0.007,0.554,0.561c0.001,2.243-0.001,4.486,0.001,6.73
					c0.001,0.811,0.249,1.059,1.06,1.059c1.91,0.001,3.821,0,5.731,0.001c0.458,0,0.479,0.021,0.481,0.483
					c0.003,0.887,0.002,1.775,0,2.662c-0.001,0.477-0.024,0.498-0.504,0.499c-3.895,0.001-7.79,0-11.684,0
					c-3.882,0-7.765,0-11.647,0c-0.55,0-0.552-0.001-0.552-0.561c-0.001-3.624-0.001-7.247,0-10.871
					C232.042,417.166,232.047,417.162,232.593,417.162z M255.878,451.579c-3.883,0.001-7.766,0-11.65,0c-3.871,0-7.742,0-11.613,0
					c-0.572,0-0.574-0.002-0.574-0.579c-0.001-1.997-0.001-3.994,0.001-5.991c0-0.464,0.023-0.486,0.478-0.487
					c7.803-0.001,15.607-0.001,23.41,0c0.478,0,0.499,0.02,0.499,0.503c0.002,1.997,0.001,3.994,0,5.991
					C256.431,451.574,256.426,451.579,255.878,451.579z"/>
			</g>
			<g>
				<path style="fill:#FFFFFF;" d="M236.361,440.845c-0.338,0-0.662-0.048-0.971-0.143c-0.309-0.095-0.592-0.239-0.849-0.43
					c-0.257-0.191-0.481-0.425-0.673-0.7c-0.191-0.276-0.342-0.597-0.452-0.965l1.401-0.551c0.103,0.397,0.283,0.726,0.54,0.987
					c0.257,0.261,0.596,0.392,1.015,0.392c0.154,0,0.303-0.02,0.447-0.061c0.143-0.04,0.272-0.099,0.386-0.176
					s0.204-0.175,0.27-0.292c0.066-0.118,0.099-0.254,0.099-0.408c0-0.147-0.026-0.279-0.077-0.397
					c-0.051-0.117-0.138-0.227-0.259-0.331c-0.121-0.103-0.28-0.202-0.475-0.298c-0.195-0.095-0.435-0.195-0.722-0.298l-0.485-0.176
					c-0.213-0.073-0.429-0.173-0.645-0.298c-0.217-0.125-0.413-0.276-0.59-0.452c-0.177-0.176-0.322-0.384-0.436-0.623
					c-0.114-0.239-0.171-0.509-0.171-0.81c0-0.309,0.06-0.597,0.182-0.866c0.121-0.268,0.294-0.503,0.518-0.706
					c0.224-0.202,0.492-0.36,0.805-0.474s0.66-0.171,1.042-0.171c0.397,0,0.74,0.053,1.031,0.16
					c0.291,0.107,0.537,0.243,0.739,0.408c0.202,0.165,0.366,0.348,0.491,0.546c0.125,0.199,0.217,0.386,0.276,0.563l-1.312,0.551
					c-0.074-0.221-0.208-0.419-0.402-0.596c-0.195-0.176-0.462-0.265-0.8-0.265c-0.324,0-0.592,0.075-0.805,0.226
					c-0.213,0.151-0.32,0.348-0.32,0.59c0,0.235,0.103,0.436,0.309,0.601c0.206,0.165,0.533,0.325,0.982,0.48l0.497,0.165
					c0.316,0.111,0.605,0.237,0.866,0.381c0.261,0.143,0.485,0.314,0.673,0.513c0.187,0.199,0.331,0.425,0.43,0.678
					c0.1,0.254,0.149,0.546,0.149,0.877c0,0.412-0.083,0.767-0.248,1.064c-0.165,0.298-0.377,0.542-0.634,0.734
					c-0.258,0.191-0.548,0.335-0.872,0.43C236.986,440.797,236.67,440.845,236.361,440.845z"/>
				<path style="fill:#FFFFFF;" d="M239.516,432.771h1.61l1.633,4.754l0.287,1.015h0.088l0.309-1.015l1.699-4.754h1.61l-2.879,7.897
					h-1.566L239.516,432.771z"/>
				<path style="fill:#FFFFFF;" d="M251.097,436.334h3.871c0.022,0.089,0.04,0.195,0.055,0.32c0.015,0.125,0.023,0.25,0.023,0.375
					c0,0.507-0.078,0.985-0.232,1.434c-0.154,0.449-0.397,0.849-0.728,1.202c-0.353,0.375-0.775,0.666-1.268,0.871
					c-0.493,0.206-1.055,0.309-1.688,0.309c-0.574,0-1.114-0.103-1.621-0.309c-0.507-0.206-0.949-0.492-1.324-0.86
					c-0.375-0.367-0.673-0.803-0.894-1.307c-0.22-0.504-0.331-1.053-0.331-1.649c0-0.595,0.11-1.145,0.331-1.649
					c0.221-0.504,0.518-0.939,0.894-1.307c0.375-0.367,0.816-0.654,1.324-0.86c0.507-0.206,1.047-0.309,1.621-0.309
					c0.64,0,1.211,0.11,1.715,0.331c0.504,0.221,0.936,0.526,1.296,0.915l-1.026,1.004c-0.257-0.272-0.544-0.48-0.861-0.623
					c-0.316-0.143-0.694-0.215-1.136-0.215c-0.36,0-0.702,0.065-1.026,0.193c-0.323,0.129-0.607,0.311-0.849,0.546
					c-0.243,0.235-0.436,0.52-0.579,0.855c-0.143,0.335-0.215,0.708-0.215,1.119c0,0.412,0.072,0.785,0.215,1.12
					c0.143,0.335,0.338,0.62,0.585,0.855c0.246,0.235,0.531,0.418,0.854,0.546c0.324,0.129,0.669,0.193,1.037,0.193
					c0.419,0,0.774-0.061,1.064-0.182c0.29-0.121,0.539-0.278,0.745-0.469c0.147-0.132,0.274-0.3,0.38-0.502
					c0.107-0.202,0.189-0.428,0.248-0.678h-2.482V436.334z"/>
			</g>
			<g>
				<path style="fill:#FFFFFF;" d="M297.3,431.299c-0.006-1.224-0.959-2.121-2.189-2.14c-0.924-0.014-0.832,0.12-0.834-0.867
					c-0.003-1.097-0.007-2.194,0.003-3.292c0.003-0.379-0.112-0.691-0.362-0.976c-2.342-2.668-4.678-5.342-7.019-8.011
					c-0.12-0.137-0.275-0.244-0.414-0.366c-6.214,0-12.427,0-18.641,0c-0.794,0.293-1.14,0.868-1.138,1.709
					c0.01,3.748,0.004,7.496,0.004,11.243c0,0.556-0.003,0.589-0.55,0.551c-1.497-0.102-2.516,0.986-2.497,2.492
					c0.044,3.476,0.013,6.953,0.014,10.429c0.001,1.58,0.867,2.443,2.45,2.449c0.582,0.002,0.582,0.002,0.582,0.6
					c0,2.219-0.001,4.438,0.001,6.657c0.001,1.192,0.58,1.771,1.768,1.771c8.013,0.001,16.027,0.001,24.04,0
					c1.168,0,1.755-0.583,1.757-1.745c0.002-2.256,0-4.512,0.001-6.768c0-0.512,0.002-0.511,0.52-0.515
					c0.271-0.002,0.541,0.008,0.809-0.058c0.996-0.246,1.69-1.044,1.694-2.069C297.315,438.696,297.318,434.997,297.3,431.299z
					 M268.85,417.162c5.337,0,10.674,0,16.01,0c0.548,0,0.554,0.007,0.554,0.561c0.001,2.243-0.001,4.486,0.001,6.73
					c0.001,0.811,0.249,1.059,1.06,1.059c1.91,0.001,3.821,0,5.731,0.001c0.458,0,0.479,0.021,0.481,0.483
					c0.003,0.887,0.002,1.775,0,2.662c-0.001,0.477-0.024,0.498-0.504,0.499c-3.895,0.001-7.79,0-11.684,0
					c-3.882,0-7.765,0-11.647,0c-0.55,0-0.552-0.001-0.552-0.561c-0.001-3.624-0.001-7.247,0-10.871
					C268.299,417.166,268.303,417.162,268.85,417.162z M292.135,451.579c-3.883,0.001-7.766,0-11.65,0c-3.871,0-7.742,0-11.613,0
					c-0.572,0-0.574-0.002-0.574-0.579c-0.001-1.997-0.001-3.994,0.001-5.991c0-0.464,0.023-0.486,0.478-0.487
					c7.803-0.001,15.607-0.001,23.41,0c0.478,0,0.499,0.02,0.499,0.503c0.001,1.997,0.001,3.994,0,5.991
					C292.687,451.574,292.682,451.579,292.135,451.579z"/>
			</g>
			<g>
				<path style="fill:#FFFFFF;" d="M272.966,434.183v1.831h3.165v1.412h-3.165v1.831h3.518v1.412h-5.007v-7.897h5.007v1.412H272.966
					z"/>
				<path style="fill:#FFFFFF;" d="M277.852,440.669v-7.897h2.779c0.375,0,0.726,0.061,1.053,0.182
					c0.327,0.121,0.612,0.292,0.855,0.513c0.243,0.221,0.434,0.483,0.574,0.789c0.14,0.305,0.209,0.642,0.209,1.009
					c0,0.375-0.07,0.715-0.209,1.02c-0.14,0.305-0.331,0.568-0.574,0.789c-0.243,0.221-0.528,0.392-0.855,0.513
					c-0.327,0.121-0.678,0.182-1.053,0.182h-1.29v2.901H277.852z M280.653,436.356c0.389,0,0.684-0.111,0.882-0.331
					c0.199-0.22,0.298-0.474,0.298-0.761c0-0.14-0.024-0.276-0.072-0.408c-0.048-0.132-0.121-0.248-0.221-0.347
					c-0.099-0.099-0.222-0.178-0.37-0.237c-0.147-0.059-0.32-0.089-0.518-0.089h-1.312v2.173H280.653z"/>
				<path style="fill:#FFFFFF;" d="M286.797,440.845c-0.338,0-0.662-0.048-0.971-0.143c-0.309-0.095-0.592-0.239-0.849-0.43
					c-0.257-0.191-0.482-0.425-0.673-0.7c-0.191-0.276-0.342-0.597-0.452-0.965l1.401-0.551c0.103,0.397,0.283,0.726,0.541,0.987
					c0.257,0.261,0.595,0.392,1.015,0.392c0.154,0,0.303-0.02,0.447-0.061c0.143-0.04,0.272-0.099,0.386-0.176
					c0.114-0.077,0.204-0.175,0.27-0.292c0.066-0.118,0.1-0.254,0.1-0.408c0-0.147-0.026-0.279-0.077-0.397
					c-0.051-0.117-0.138-0.227-0.259-0.331c-0.121-0.103-0.279-0.202-0.474-0.298c-0.195-0.095-0.436-0.195-0.723-0.298
					l-0.485-0.176c-0.213-0.073-0.428-0.173-0.645-0.298c-0.217-0.125-0.414-0.276-0.59-0.452c-0.176-0.176-0.322-0.384-0.436-0.623
					c-0.114-0.239-0.171-0.509-0.171-0.81c0-0.309,0.061-0.597,0.182-0.866c0.121-0.268,0.294-0.503,0.518-0.706
					c0.224-0.202,0.493-0.36,0.805-0.474c0.312-0.114,0.66-0.171,1.042-0.171c0.397,0,0.741,0.053,1.031,0.16
					c0.29,0.107,0.537,0.243,0.739,0.408c0.202,0.165,0.365,0.348,0.491,0.546c0.125,0.199,0.217,0.386,0.276,0.563l-1.312,0.551
					c-0.074-0.221-0.208-0.419-0.403-0.596c-0.195-0.176-0.462-0.265-0.799-0.265c-0.324,0-0.592,0.075-0.805,0.226
					c-0.213,0.151-0.32,0.348-0.32,0.59c0,0.235,0.103,0.436,0.309,0.601c0.206,0.165,0.533,0.325,0.982,0.48l0.496,0.165
					c0.316,0.111,0.605,0.237,0.866,0.381c0.261,0.143,0.485,0.314,0.673,0.513c0.187,0.199,0.331,0.425,0.43,0.678
					c0.099,0.254,0.149,0.546,0.149,0.877c0,0.412-0.083,0.767-0.248,1.064c-0.165,0.298-0.377,0.542-0.634,0.734
					c-0.258,0.191-0.548,0.335-0.872,0.43C287.422,440.797,287.105,440.845,286.797,440.845z"/>
			</g>
			<g>
				<path style="fill:#FFFFFF;" d="M321.394,439.168l4.004-4.985h-3.827v-1.412h5.559v1.5l-3.96,4.985h4.004v1.412h-5.779V439.168z"
					/>
				<path style="fill:#FFFFFF;" d="M328.409,432.771h1.489v7.897h-1.489V432.771z"/>
				<path style="fill:#FFFFFF;" d="M331.486,440.669v-7.897h2.779c0.375,0,0.726,0.061,1.053,0.182
					c0.327,0.121,0.612,0.292,0.855,0.513s0.434,0.483,0.574,0.789c0.14,0.305,0.209,0.642,0.209,1.009
					c0,0.375-0.07,0.715-0.209,1.02c-0.14,0.305-0.331,0.568-0.574,0.789c-0.243,0.221-0.528,0.392-0.855,0.513
					c-0.327,0.121-0.678,0.182-1.053,0.182h-1.29v2.901H331.486z M334.288,436.356c0.389,0,0.684-0.111,0.882-0.331
					c0.199-0.22,0.298-0.474,0.298-0.761c0-0.14-0.024-0.276-0.072-0.408c-0.048-0.132-0.121-0.248-0.221-0.347
					c-0.099-0.099-0.222-0.178-0.37-0.237c-0.147-0.059-0.32-0.089-0.518-0.089h-1.312v2.173H334.288z"/>
			</g>
		</g>
		<g style="opacity:0.61;">
			<path style="fill:#FFFFFF;" d="M300.133,433.27h9.067v2.242h-9.067V433.27z M300.133,437.136h9.067v2.243h-9.067V437.136z"/>
		</g>
	</g>
	<g style="opacity:0.61;">
		<path style="fill:#FFFFFF;" d="M156.756,478.878h1.607c1.263,0,2.114,0.812,2.114,1.974c0,1.161-0.851,1.973-2.114,1.973h-1.607
			V478.878z M158.34,482.464c1.049,0,1.725-0.665,1.725-1.612c0-0.947-0.677-1.613-1.725-1.613h-1.167v3.225H158.34z"/>
		<path style="fill:#FFFFFF;" d="M165.139,480.851c0-1.15,0.879-2.007,2.075-2.007c1.184,0,2.069,0.851,2.069,2.007
			c0,1.156-0.885,2.007-2.069,2.007C166.019,482.858,165.139,482.002,165.139,480.851z M168.866,480.851
			c0-0.942-0.705-1.635-1.652-1.635c-0.953,0-1.663,0.693-1.663,1.635c0,0.941,0.71,1.635,1.663,1.635
			C168.162,482.486,168.866,481.793,168.866,480.851z"/>
		<path style="fill:#FFFFFF;" d="M179.596,478.878l-1.331,3.947h-0.44l-1.156-3.366l-1.161,3.366h-0.434l-1.331-3.947h0.429
			l1.139,3.394l1.178-3.394h0.389l1.161,3.411l1.156-3.411H179.596z"/>
		<path style="fill:#FFFFFF;" d="M187.731,478.878v3.947h-0.344l-2.537-3.202v3.202h-0.417v-3.947h0.344l2.543,3.203v-3.203H187.731
			z"/>
		<path style="fill:#FFFFFF;" d="M193.093,478.878h0.417v3.586h2.21v0.361h-2.627V478.878z"/>
		<path style="fill:#FFFFFF;" d="M200.061,480.851c0-1.15,0.879-2.007,2.075-2.007c1.184,0,2.069,0.851,2.069,2.007
			c0,1.156-0.885,2.007-2.069,2.007C200.941,482.858,200.061,482.002,200.061,480.851z M203.788,480.851
			c0-0.942-0.705-1.635-1.652-1.635c-0.953,0-1.663,0.693-1.663,1.635c0,0.941,0.71,1.635,1.663,1.635
			C203.083,482.486,203.788,481.793,203.788,480.851z"/>
		<path style="fill:#FFFFFF;" d="M211.636,481.77h-2.199l-0.474,1.054h-0.434l1.804-3.947h0.412l1.804,3.947h-0.44L211.636,481.77z
			 M211.484,481.432l-0.947-2.12l-0.947,2.12H211.484z"/>
		<path style="fill:#FFFFFF;" d="M217.28,478.878h1.607c1.263,0,2.114,0.812,2.114,1.974c0,1.161-0.851,1.973-2.114,1.973h-1.607
			V478.878z M218.864,482.464c1.049,0,1.725-0.665,1.725-1.612c0-0.947-0.677-1.613-1.725-1.613h-1.167v3.225H218.864z"/>
		<path style="fill:#FFFFFF;" d="M234.041,481.77h-2.199l-0.474,1.054h-0.434l1.804-3.947h0.412l1.804,3.947h-0.44L234.041,481.77z
			 M233.889,481.432l-0.947-2.12l-0.947,2.12H233.889z"/>
		<path style="fill:#FFFFFF;" d="M239.685,478.878h0.417v3.586h2.21v0.361h-2.627V478.878z"/>
		<path style="fill:#FFFFFF;" d="M247.082,478.878h0.417v3.586h2.21v0.361h-2.627V478.878z"/>
		<path style="fill:#FFFFFF;" d="M260.449,479.239v1.551h2.041v0.361h-2.041v1.675h-0.417v-3.947h2.706v0.361H260.449z"/>
		<path style="fill:#FFFFFF;" d="M267.678,478.878h0.417v3.947h-0.417V478.878z"/>
		<path style="fill:#FFFFFF;" d="M273.456,478.878h0.417v3.586h2.21v0.361h-2.627V478.878z"/>
		<path style="fill:#FFFFFF;" d="M283.644,482.464v0.361h-2.791v-3.947h2.706v0.361h-2.289v1.404h2.041v0.355h-2.041v1.466H283.644z
			"/>
		<path style="fill:#FFFFFF;" d="M294.672,479.239v1.551h2.041v0.361h-2.041v1.675h-0.417v-3.947h2.706v0.361H294.672z"/>
		<path style="fill:#FFFFFF;" d="M301.5,480.851c0-1.15,0.879-2.007,2.075-2.007c1.184,0,2.069,0.851,2.069,2.007
			c0,1.156-0.885,2.007-2.069,2.007C302.379,482.858,301.5,482.002,301.5,480.851z M305.226,480.851
			c0-0.942-0.705-1.635-1.652-1.635c-0.953,0-1.663,0.693-1.663,1.635c0,0.941,0.71,1.635,1.663,1.635
			C304.522,482.486,305.226,481.793,305.226,480.851z"/>
		<path style="fill:#FFFFFF;" d="M313.351,482.825l-0.902-1.269c-0.102,0.011-0.203,0.017-0.316,0.017h-1.06v1.252h-0.417v-3.947
			h1.477c1.004,0,1.613,0.507,1.613,1.353c0,0.62-0.327,1.054-0.902,1.24l0.964,1.353H313.351z M313.328,480.231
			c0-0.632-0.417-0.992-1.207-0.992h-1.048v1.979h1.048C312.911,481.218,313.328,480.851,313.328,480.231z"/>
		<path style="fill:#FFFFFF;" d="M322.907,478.878v3.947h-0.4v-3.158l-1.551,2.656h-0.197l-1.551-2.639v3.14h-0.4v-3.947h0.344
			l1.714,2.926l1.697-2.926H322.907z"/>
		<path style="fill:#FFFFFF;" d="M330.744,481.77h-2.199l-0.473,1.054h-0.434l1.804-3.947h0.411l1.804,3.947h-0.44L330.744,481.77z
			 M330.592,481.432l-0.947-2.12l-0.947,2.12H330.592z"/>
		<path style="fill:#FFFFFF;" d="M336.957,479.239h-1.387v-0.361h3.192v0.361h-1.387v3.586h-0.417V479.239z"/>
		<path style="fill:#FFFFFF;" d="M343.063,482.346l0.164-0.321c0.282,0.276,0.784,0.479,1.302,0.479c0.739,0,1.06-0.31,1.06-0.699
			c0-1.083-2.43-0.417-2.43-1.877c0-0.581,0.451-1.083,1.455-1.083c0.446,0,0.908,0.13,1.224,0.35l-0.141,0.333
			c-0.338-0.22-0.733-0.327-1.083-0.327c-0.722,0-1.043,0.321-1.043,0.716c0,1.083,2.43,0.429,2.43,1.866
			c0,0.581-0.462,1.077-1.472,1.077C343.937,482.858,343.356,482.65,343.063,482.346z"/>
	</g>
</g>
<g>
</g>
<g>
	<rect x="25" y="25" style="fill:#0077BE;" width="450" height="450"/>
	<g>
		<path style="fill:#FFFFFF;" d="M192.445,168.474c-0.386-2.002-2.793-1.365-2.793-1.365c-5.322,0.574-18.91,3.458-33.378,10.809
			c-14.478,7.387-18.156,14.837-18.156,14.837c-5.925,12.297,0.274,17.642,4.858,21.545c4.59,3.913,12.093,7.417,20.579,13.099
			c8.476,5.742,7.351,10.718,6.433,13.886c-3.648,12.275-19.822,20.127-29.873,24.135c-10.135,3.839-26.133,4.846-27.246,4.88
			c-1.086,0.014-1.328,0.912-1.496,0.936c-2.111,2.868-5.408,8.799-5.408,8.799c-1.172,1.835,1.501,1.559,1.501,1.559
			c25.139-1.698,48.185-19.187,48.185-19.187s17.131-10.325,20.563-25.525c2.255-9.733-0.488-13.676-6.569-18.307
			c-6.199-4.557-15.657-9.703-24.895-15.739c-9.246-6.046,1.415-14.025,5.304-15.852c19.941-9.427,38.028-9.129,38.028-9.129
			c1.593-0.161,1.489-0.711,1.489-0.711C192.895,170.897,192.445,168.474,192.445,168.474"/>
		<path style="fill:#FFFFFF;" d="M289.294,161.277c-0.956-2.01-3.211-1.057-3.211-1.057c-6.839,2.052-9.472,11.65-12.505,18.508
			c0,0-7.105,21.629-8.019,25.047c-0.973,3.363-1.759,6.745-1.759,6.745c-6.963,16.788-8.522,16.949-8.522,16.949
			s1.559-8.056,1.675-11.721c0.114-3.734-3.974-1.132-5.392-0.405c-1.469,0.866-1.805,2.004-1.805,2.004
			c-1.423,3.54-6.937,13.906-8.734,16.885c-1.885,2.966-6.953,9.832-10.244,9.211c-3.259-0.654-0.96-5.48,0.082-8.007
			c1.057-2.529,4.866-12.702,4.866-12.702c1.563-5.855-5.17-3.384-5.17-3.384c-2.779,0.234-4.776,3.15-4.776,3.15
			s-6.295,11.498-10.957,18.438c-4.584,6.877-8.253,6.479-8.253,6.479c-5.44-1.299-7.059-9.095-7.413-10.728
			c-0.426-1.665-0.25-2.336,0.78-3.766c1.025-1.315,4.932-8.714,5.894-11.413c1.046-2.683-2.095-4.777-4.092-2.294
			c-2.001,2.407-2.595,4.634-5.05,8.61c-2.423,4.01-7.561,6.716-7.561,6.716c-1.959,1.986-0.906,3.107-0.906,3.107l1.218,4.131
			c0.496,1.09-0.258,2.536-0.258,2.536l-3.177,3.224c-3.684,2.747-1.933-3.192-1.933-3.192c5.45-26.425,17.668-58.404,17.758-58.396
			c2.195-6.358-4.136-2.9-7.097-0.808c-2.979,2.203-3.83,5.395-3.83,5.395s0.296-1.009-1.935,6.489
			c-2.267,7.506-7.609,33.697-9.504,42.876c-1.959,9.161-2.771,18.977-2.771,18.977c0.758,5.226,6.183,0.896,7.245-0.04
			c1.075-0.946,8.832-10.011,8.832-10.011s2.639,1.438,4.218,3.144c1.493,1.698,2.907,2.302,2.907,2.302
			c7.445,2.658,17.816-10.446,17.816-10.446c0.41,1.496,0.09,3.71-0.038,5.979c-0.13,2.272,0.354,2.916,0.424,2.95
			c5.973,6.205,23.1-11.709,24.426-12.766c1.339-1.073,0.632,1.128,0.632,1.128c-0.886,1.837-6.367,17.599-7.921,21.752
			c-1.633,4.177-3.74,4.751-3.74,4.751c-9.824,8.054-15.08,21.287-16.149,26.37c-1.047,5.162,2.233,4.118,2.233,4.118
			c5.4-2.376,12.083-7.576,18.12-19.033c6.199-11.375,11.513-27.651,12.053-29.571c0.582-1.889,1.771-5.776,3.31-8.038
			c1.545-2.262,7.957-13.866,8.77-15.278c0.792-1.424,1.645-0.59,1.645-0.59c-0.202,0.979-1.02,7.415-1.02,7.415
			c-0.198,3.015,0.306,4.839,1.052,5.955l13.138-36.734c-0.262,0.129-0.582,0.081-0.526-0.965c0,0,3.684-14.192,6.763-19.106
			c0,0,0.974-1.516,1.287-0.944L289.294,161.277 M280.499,203.466l-2.361,6.602c-1.35-0.139-2.863,0.429-3.617,1.105
			c-1.353,1.327-2.427,1.867-3.42,3.08c-1.094,1.148-1.422,3.951-1.422,3.951s-1.799,8.481-1.509,13.773
			c0.078,1.674,0.554,2.527,1.121,2.803l-2.093,5.864c-0.762,0.099-1.537,0.032-2.341,0.032c0,0-2.033,0.137-3.35-1.704
			l13.138-36.734c0.258-0.129,0.492-0.348,0.492-0.348c4.014-5.687,6.895-16.458,7.071-19.374c0.108-0.713,0.038-1.114-0.04-1.293
			l7.127-19.948c0.244,0.536,0.434,1.271,0.442,2.254c0.168,4.882,2.075,13.161-10.492,39.984
			C279.244,203.515,279.134,204,280.499,203.466z M288.716,206.181c1.494,3.808,0.892,8.742-0.809,13.574l-0.262,0.654
			c-0.68,1.921-1.571,3.823-2.501,5.564c-3.173,6.004-8.37,14.255-17.948,14.672l2.093-5.864c1.213,0.681,2.927-0.832,2.927-0.832
			c7.977-6.543,9.06-18.194,8.418-21.507c-0.32-1.549-1.301-2.237-2.497-2.374l2.361-6.602l0.094-0.038
			C281.941,202.884,286.547,200.8,288.716,206.181z"/>
		<path style="fill:#FFFFFF;" d="M391.808,187.009c-8.368,11.828-10.566,12.464-10.566,12.464
			c0.308-8.982,0.406-35.385-12.333-18.232c-1.627,2.9-17.367,32.051-19.094,34.831c-1.685,2.672-1.745,1.851-1.745,1.851
			c0.654-2.459,2.861-14.319,3.229-17.453c0.344-3.182-2.841-3.474-5.596-3.546c-2.735-0.056-2.927,2.27-2.927,2.27
			c-0.876,2.219-4.38,14.017-8.668,16.675c-4.334,2.715-3.279-3.021-3.279-3.021c1.911-12.929,6.403-15.326,9.032-17.799
			c2.619-2.449,7.949,2.018,7.949,2.018c-1.295-5.589-7.325-10.881-7.325-10.881c-6.089-1.915-11.043,6.187-11.043,6.187
			c-7.671,11.425-7.991,23.764-7.879,24.908c0.102,1.164-0.058,1.571-0.082,1.633c-0.382,1.875-2.911,4.678-2.911,4.678
			c-2.981,2.398-2.801-1.293-2.801-1.293s1.083-6.996,2.021-11.627c0.8-4.531-1.829-4.491-1.829-4.491s-1.901-0.185-4.128,0.097
			c-2.255,0.266-2.453,1.615-2.453,1.615l-1.569,4.316c-3.297,9.677-5.901,13.048-9.182,14.51c-3.255,1.535-1.775-3.675-1.775-3.675
			c4.466-13.316,9.422-17.952,11.107-19.362c1.657-1.388,3.645-0.199,3.645-0.199c1.493,0.046,1.062-1.543,1.062-1.543
			c-1.196-3.007-4.576-4.346-4.576-4.346c-7.729-3.363-15.064,11.648-17.347,17.668c-2.375,5.995-5.462,14.599-0.316,18.26
			c5.006,3.691,16.117-9.381,16.117-9.381c1.191,5.035,4.348,6.058,4.348,6.058c6.421,2.417,10.909-6.664,10.909-6.664l1.194-0.461
			c4.058,6.416,14.636-4.976,15.675-6.01c1.02-1.043,0.962,0.735,0.962,0.735c0.018,2.989-1.634,9.882-2.431,13.33
			c-0.857,3.428-0.352,4.735-2.727,7.812c-2.361,3.174-3.197,3.442-8.125,12.909c-4.87,9.56-6.889,16.848-6.753,20.943
			c0.208,4.112,1.825,5.923,6.113,1.309c8.98-9.574,14.15-28.94,15.687-34.498c1.531-5.5,7.381-14.736,7.381-14.736
			s18.742-32.615,20.037-34.303c1.148-1.821,2.833-5.021,2.833-5.021s5.08,7.055,4.26,13.632c-0.889,6.585-9.982,7.536-11.733,8.378
			c-1.773,0.832-1.681,2.688-1.681,2.688c0.11,4.008,2.409,8.162,2.409,8.162c1.133,2.308,3.92,0.878,3.92,0.878
			c12.329-6.68,22.158-25.391,23.446-27.983c1.251-2.529,2.041-4.477,2.065-4.549C394.117,183.889,391.944,186.904,391.808,187.009"
			/>
		<path style="fill:#FFFFFF;" d="M318.585,239.264c-7.265,0.721-28.352,5.81-37.414,9.874c-9.054,4.096-7.503,12.845-7.503,12.845
			c-0.13,1.98,1.961,0.81,3.009,0.163c1.074-0.574,5.612-3.265,13.051-6.916c7.425-3.661,24.867-9.905,29.389-11.119
			c4.524-1.227,4.974-2.64,4.49-4.403C323.115,237.892,318.647,239.298,318.585,239.264"/>
		<polyline style="fill:#FFFFFF;" points="118.812,340.006 111.591,322.844 108.635,339.092 105.948,339.092 110.664,314.24 
			118.812,334.001 126.961,314.24 131.697,339.092 128.984,339.092 126.031,322.844 118.812,340.006 		"/>
		<path style="fill:#FFFFFF;" d="M164.317,327.175c0,1.706-0.314,3.329-0.93,4.839c-0.602,1.502-1.509,2.86-2.689,4.022
			c-1.181,1.178-2.529,2.094-4.052,2.747c-1.537,0.623-3.119,0.957-4.796,0.957c-1.637,0-3.207-0.334-4.744-0.957
			c-1.517-0.652-2.873-1.569-4.048-2.747c-1.188-1.162-2.079-2.519-2.725-4.038c-0.608-1.513-0.922-3.126-0.922-4.823
			c0-1.714,0.314-3.321,0.922-4.833c0.646-1.524,1.537-2.874,2.725-4.07c1.169-1.156,2.515-2.054,4.048-2.699
			c1.537-0.628,3.107-0.937,4.744-0.937c1.677,0,3.271,0.308,4.804,0.937c1.539,0.645,2.899,1.543,4.044,2.699
			c1.18,1.188,2.087,2.538,2.689,4.056C164.003,323.83,164.317,325.454,164.317,327.175 M151.85,337.038
			c1.278,0,2.505-0.232,3.662-0.741c1.142-0.485,2.193-1.206,3.107-2.157c0.934-0.937,1.615-2.002,2.079-3.198
			c0.492-1.172,0.722-2.433,0.722-3.766c0-1.341-0.242-2.602-0.722-3.822c-0.472-1.202-1.181-2.272-2.079-3.2
			c-0.914-0.926-1.951-1.645-3.083-2.141c-1.181-0.483-2.383-0.735-3.686-0.735c-1.275,0-2.501,0.252-3.65,0.735
			c-1.164,0.495-2.185,1.214-3.091,2.141c-0.906,0.955-1.595,2.02-2.071,3.216c-0.488,1.204-0.73,2.465-0.73,3.806
			c0,1.333,0.242,2.586,0.718,3.758c0.48,1.178,1.148,2.245,2.083,3.206c0.946,0.959,1.977,1.672,3.123,2.167
			C149.381,336.806,150.575,337.038,151.85,337.038z"/>
		<polyline style="fill:#FFFFFF;" points="180.144,340.006 170.284,315.176 173.309,315.176 180.144,333.451 186.943,315.176 
			189.948,315.176 180.144,340.006 		"/>
		<polyline style="fill:#FFFFFF;" points="197.595,339.092 197.595,315.176 209.906,315.176 209.906,317.772 200.382,317.772 
			200.382,324.628 209.906,324.628 209.906,327.272 200.382,327.272 200.382,336.44 209.906,336.44 209.906,339.092 
			197.595,339.092 		"/>
		<rect x="234.667" y="315.176" style="fill:#FFFFFF;" width="2.751" height="23.915"/>
		<polyline style="fill:#FFFFFF;" points="248.271,339.092 248.271,314.24 265.324,333.338 265.324,315.176 267.951,315.176 
			267.951,340.006 250.916,321.116 250.916,339.092 248.271,339.092 		"/>
		<path style="fill:#FFFFFF;" d="M302.05,325.792c1.533,0.681,2.655,1.545,3.451,2.652c0.746,1.108,1.131,2.407,1.131,3.909
			c0,2.207-0.664,3.985-2.033,5.317c-1.357,1.351-3.193,2.036-5.424,2.036c-1.845,0-3.353-0.502-4.616-1.472
			c-1.246-0.967-2.079-2.334-2.509-4.094l2.509-1.287c0.34,1.456,0.918,2.564,1.669,3.307c0.802,0.751,1.779,1.108,2.947,1.108
			c1.407,0,2.529-0.399,3.365-1.231c0.862-0.832,1.301-1.881,1.301-3.214c0-1.075-0.296-1.996-0.902-2.769
			c-0.61-0.792-1.501-1.464-2.705-2.008l-2.817-1.251c-1.571-0.661-2.711-1.518-3.473-2.56c-0.762-1.051-1.139-2.306-1.139-3.756
			c0-1.698,0.618-3.112,1.829-4.211c1.247-1.108,2.811-1.664,4.718-1.664c1.407,0,2.603,0.298,3.638,0.898
			c1.02,0.604,1.821,1.524,2.393,2.705l-2.287,1.486c-0.532-0.912-1.119-1.591-1.751-2.058c-0.64-0.445-1.391-0.657-2.201-0.657
			c-1.034,0-1.887,0.316-2.551,0.955c-0.66,0.669-0.996,1.484-0.996,2.511c0,0.848,0.25,1.583,0.77,2.205
			c0.5,0.622,1.3,1.164,2.375,1.639L302.05,325.792"/>
		<polyline style="fill:#FFFFFF;" points="319.621,339.092 319.621,317.885 313.021,317.885 313.021,315.176 328.961,315.176 
			328.961,317.885 322.414,317.885 322.414,339.092 319.621,339.092 		"/>
		<polyline style="fill:#FFFFFF;" points="342.397,339.092 342.397,328.144 334.506,315.176 337.711,315.176 343.804,325.542 
			349.844,315.176 353.05,315.176 345.166,328.144 345.166,339.092 342.397,339.092 		"/>
		<polyline style="fill:#FFFFFF;" points="361.123,339.092 361.123,315.176 363.902,315.176 363.902,336.377 372.698,336.377 
			372.698,339.092 361.123,339.092 		"/>
		<polyline style="fill:#FFFFFF;" points="381.202,339.092 381.202,315.176 393.497,315.176 393.497,317.772 383.985,317.772 
			383.985,324.628 393.497,324.628 393.497,327.272 383.985,327.272 383.985,336.44 393.497,336.44 393.497,339.092 
			381.202,339.092 		"/>
	</g>
</g>
</svg>
